<?xml version="1.0" encoding="UTF-8"?><svg xmlns="http://www.w3.org/2000/svg" viewBox="0 0 64 64"><g id="a"/><g id="b"/><g id="c"><g><polygon points="40.618 19 41.382 19 41 18.236 40.618 19"/><path d="M9.956,56v1c0,1.654,1.346,3,3,3h15.556c-.344-.591-.556-1.268-.556-2s.212-1.409,.556-2H9.956Z"/><path d="M23,20c-.134,0-.268-.027-.394-.081l-2.606-1.117v3.559c2.014,.854,3.986,.854,6,0v-3.559l-2.606,1.117c-.126,.054-.26,.081-.394,.081Z"/><circle cx="31.956" cy="58" r="2"/><path d="M35.956,58c0,.732-.212,1.409-.556,2h15.556c1.654,0,3-1.346,3-3v-1h-18.556c.344,.591,.556,1.268,.556,2Z"/><polygon points="27.461 16 23 14.088 18.539 16 23 17.912 27.461 16"/><path d="M9.956,54H53.956V10H9.956V54Zm26.044-2h-12c-.552,0-1-.447-1-1s.448-1,1-1h12c.552,0,1,.447,1,1s-.448,1-1,1Zm15,0h-11c-.552,0-1-.447-1-1s.448-1,1-1h11c.552,0,1,.447,1,1s-.448,1-1,1Zm0-4H24c-.552,0-1-.447-1-1s.448-1,1-1h27c.552,0,1,.447,1,1s-.448,1-1,1Zm-28-5c0-.553,.448-1,1-1h12c.552,0,1,.447,1,1s-.448,1-1,1h-12c-.552,0-1-.447-1-1Zm28,1h-11c-.552,0-1-.447-1-1s.448-1,1-1h11c.552,0,1,.447,1,1s-.448,1-1,1Zm0-4H24c-.552,0-1-.447-1-1s.448-1,1-1h27c.552,0,1,.447,1,1s-.448,1-1,1Zm-28-5c0-.553,.448-1,1-1h12c.552,0,1,.447,1,1s-.448,1-1,1h-12c-.552,0-1-.447-1-1Zm28,1h-11c-.552,0-1-.447-1-1s.448-1,1-1h11c.552,0,1,.447,1,1s-.448,1-1,1Zm1-5c0,.553-.448,1-1,1H24c-.552,0-1-.447-1-1s.448-1,1-1h27c.552,0,1,.447,1,1Zm-11-19c4.411,0,8,3.589,8,8,0,.778-.112,1.548-.332,2.286-.158,.529-.718,.828-1.244,.672-.529-.157-.831-.715-.673-1.244,.165-.553,.249-1.129,.249-1.714,0-3.309-2.691-6-6-6s-6,2.691-6,6,2.691,6,6,6c1.234,0,2.42-.372,3.428-1.075,.454-.313,1.077-.204,1.393,.248,.316,.453,.205,1.076-.248,1.393-1.345,.938-2.926,1.435-4.572,1.435-4.411,0-8-3.589-8-8s3.589-8,8-8Zm3.447,10.895c-.144,.071-.296,.105-.446,.105-.367,0-.72-.202-.896-.553l-.724-1.447h-2.764l-.724,1.447c-.247,.494-.847,.692-1.342,.447-.494-.247-.694-.848-.447-1.342l3-6c.339-.678,1.45-.678,1.789,0l3,6c.247,.494,.047,1.095-.447,1.342ZM15.606,15.081l7-3c.252-.107,.536-.107,.788,0l7,3c.368,.157,.606,.519,.606,.919s-.238,.762-.606,.919l-2.394,1.026v5.055c0,.379-.214,.725-.553,.895-1.476,.737-2.961,1.106-4.447,1.106s-2.972-.369-4.447-1.106c-.339-.17-.553-.516-.553-.895v-5.055l-2.394-1.026c-.368-.157-.606-.519-.606-.919s.238-.762,.606-.919Zm-3.313,18.212c.391-.391,1.023-.391,1.414,0l.293,.293,3.293-3.293c.391-.391,1.023-.391,1.414,0s.391,1.023,0,1.414l-4,4c-.195,.195-.451,.293-.707,.293s-.512-.098-.707-.293l-1-1c-.391-.391-.391-1.023,0-1.414Zm0,8c.391-.391,1.023-.391,1.414,0l.293,.293,3.293-3.293c.391-.391,1.023-.391,1.414,0s.391,1.023,0,1.414l-4,4c-.195,.195-.451,.293-.707,.293s-.512-.098-.707-.293l-1-1c-.391-.391-.391-1.023,0-1.414Zm0,8c.391-.391,1.023-.391,1.414,0l.293,.293,3.293-3.293c.391-.391,1.023-.391,1.414,0s.391,1.023,0,1.414l-4,4c-.195,.195-.451,.293-.707,.293s-.512-.098-.707-.293l-1-1c-.391-.391-.391-1.023,0-1.414Z"/><path d="M50.956,4H12.956c-1.654,0-3,1.346-3,3v1H53.956v-1c0-1.654-1.346-3-3-3Zm-16,3h-6c-.552,0-1-.447-1-1s.448-1,1-1h6c.552,0,1,.447,1,1s-.448,1-1,1Zm4.062,0c-.552,0-1.005-.448-1.005-1s.442-1,.995-1h.01c.552,0,1,.448,1,1s-.448,1-1,1Z"/></g></g></svg>